<svg width="144" height="112" viewBox="0 0 144 112" fill="none" xmlns="http://www.w3.org/2000/svg">
<mask id="mask0_9_36" style="mask-type:alpha" maskUnits="userSpaceOnUse" x="0" y="0" width="144" height="112">
<rect width="144" height="112" fill="#D9D9D9"/>
</mask>
<g mask="url(#mask0_9_36)">
<path d="M18 98V32.6667H42V14H102V51.3333H126V98H78V79.3333H66V98H18ZM30 88.6667H42V79.3333H30V88.6667ZM30 70H42V60.6667H30V70ZM30 51.3333H42V42H30V51.3333ZM54 70H66V60.6667H54V70ZM54 51.3333H66V42H54V51.3333ZM54 32.6667H66V23.3333H54V32.6667ZM78 70H90V60.6667H78V70ZM78 51.3333H90V42H78V51.3333ZM78 32.6667H90V23.3333H78V32.6667ZM102 88.6667H114V79.3333H102V88.6667ZM102 70H114V60.6667H102V70Z" fill="#00FF7A"/>
</g>
</svg>
