<svg width="183" height="27" viewBox="0 0 183 27" fill="none" xmlns="http://www.w3.org/2000/svg">
<path d="M14.74 13.112C16.156 13.376 17.32 14.084 18.232 15.236C19.144 16.388 19.6 17.708 19.6 19.196C19.6 20.54 19.264 21.728 18.592 22.76C17.944 23.768 16.996 24.56 15.748 25.136C14.5 25.712 13.024 26 11.32 26H0.484V0.872H10.852C12.556 0.872 14.02 1.148 15.244 1.7C16.492 2.252 17.428 3.02 18.052 4.004C18.7 4.988 19.024 6.104 19.024 7.352C19.024 8.816 18.628 10.04 17.836 11.024C17.068 12.008 16.036 12.704 14.74 13.112ZM5.524 11.24H10.132C11.332 11.24 12.256 10.976 12.904 10.448C13.552 9.896 13.876 9.116 13.876 8.108C13.876 7.1 13.552 6.32 12.904 5.768C12.256 5.216 11.332 4.94 10.132 4.94H5.524V11.24ZM10.6 21.896C11.824 21.896 12.772 21.608 13.444 21.032C14.14 20.456 14.488 19.64 14.488 18.584C14.488 17.504 14.128 16.664 13.408 16.064C12.688 15.44 11.716 15.128 10.492 15.128H5.524V21.896H10.6ZM28.6568 22.004H36.9368V26H23.6168V0.872H28.6568V22.004ZM51.8043 26.252C49.4523 26.252 47.2923 25.7 45.3243 24.596C43.3563 23.492 41.7963 21.968 40.6443 20.024C39.4923 18.056 38.9163 15.836 38.9163 13.364C38.9163 10.916 39.4923 8.72 40.6443 6.776C41.7963 4.808 43.3563 3.272 45.3243 2.168C47.2923 1.064 49.4523 0.512 51.8043 0.512C54.1803 0.512 56.3403 1.064 58.2843 2.168C60.2523 3.272 61.8003 4.808 62.9283 6.776C64.0803 8.72 64.6563 10.916 64.6563 13.364C64.6563 15.836 64.0803 18.056 62.9283 20.024C61.8003 21.968 60.2523 23.492 58.2843 24.596C56.3163 25.7 54.1563 26.252 51.8043 26.252ZM51.8043 21.752C53.3163 21.752 54.6483 21.416 55.8003 20.744C56.9523 20.048 57.8523 19.064 58.5003 17.792C59.1483 16.52 59.4723 15.044 59.4723 13.364C59.4723 11.684 59.1483 10.22 58.5003 8.972C57.8523 7.7 56.9523 6.728 55.8003 6.056C54.6483 5.384 53.3163 5.048 51.8043 5.048C50.2923 5.048 48.9483 5.384 47.7723 6.056C46.6203 6.728 45.7203 7.7 45.0723 8.972C44.4243 10.22 44.1003 11.684 44.1003 13.364C44.1003 15.044 44.4243 16.52 45.0723 17.792C45.7203 19.064 46.6203 20.048 47.7723 20.744C48.9483 21.416 50.2923 21.752 51.8043 21.752ZM85.9019 8.432C85.3259 7.376 84.5339 6.572 83.5259 6.02C82.5179 5.468 81.3419 5.192 79.9979 5.192C78.5099 5.192 77.1899 5.528 76.0379 6.2C74.8859 6.872 73.9859 7.832 73.3379 9.08C72.6899 10.328 72.3659 11.768 72.3659 13.4C72.3659 15.08 72.6899 16.544 73.3379 17.792C74.0099 19.04 74.9339 20 76.1099 20.672C77.2859 21.344 78.6539 21.68 80.2139 21.68C82.1339 21.68 83.7059 21.176 84.9299 20.168C86.1539 19.136 86.9579 17.708 87.3419 15.884H78.7019V12.032H92.3099V16.424C91.9739 18.176 91.2539 19.796 90.1499 21.284C89.0459 22.772 87.6179 23.972 85.8659 24.884C84.1379 25.772 82.1939 26.216 80.0339 26.216C77.6099 26.216 75.4139 25.676 73.4459 24.596C71.5019 23.492 69.9659 21.968 68.8379 20.024C67.7339 18.08 67.1819 15.872 67.1819 13.4C67.1819 10.928 67.7339 8.72 68.8379 6.776C69.9659 4.808 71.5019 3.284 73.4459 2.204C75.4139 1.1 77.5979 0.547999 79.9979 0.547999C82.8299 0.547999 85.2899 1.244 87.3779 2.636C89.4659 4.004 90.9059 5.936 91.6979 8.432H85.9019ZM127.189 0.872L117.973 26H111.853L102.637 0.872H108.037L114.949 20.852L121.825 0.872H127.189ZM135.251 0.872V26H130.211V0.872H135.251ZM139.006 13.4C139.006 10.928 139.558 8.72 140.662 6.776C141.79 4.808 143.314 3.284 145.234 2.204C147.178 1.1 149.35 0.547999 151.75 0.547999C154.558 0.547999 157.018 1.268 159.13 2.708C161.242 4.148 162.718 6.14 163.558 8.684H157.762C157.186 7.484 156.37 6.584 155.314 5.984C154.282 5.384 153.082 5.084 151.714 5.084C150.25 5.084 148.942 5.432 147.79 6.128C146.662 6.8 145.774 7.76 145.126 9.008C144.502 10.256 144.19 11.72 144.19 13.4C144.19 15.056 144.502 16.52 145.126 17.792C145.774 19.04 146.662 20.012 147.79 20.708C148.942 21.38 150.25 21.716 151.714 21.716C153.082 21.716 154.282 21.416 155.314 20.816C156.37 20.192 157.186 19.28 157.762 18.08H163.558C162.718 20.648 161.242 22.652 159.13 24.092C157.042 25.508 154.582 26.216 151.75 26.216C149.35 26.216 147.178 25.676 145.234 24.596C143.314 23.492 141.79 21.968 140.662 20.024C139.558 18.08 139.006 15.872 139.006 13.4ZM172.903 4.94V11.24H181.363V15.236H172.903V21.896H182.443V26H167.863V0.835998H182.443V4.94H172.903Z" fill="#00FF7A"/>
</svg>
